<svg id="visual" viewBox="0 0 900 600" width="900" height="600" xmlns="http://www.w3.org/2000/svg" xmlns:xlink="http://www.w3.org/1999/xlink" version="1.1"><rect x="0" y="0" width="900" height="600" fill="#004d6d"></rect><path d="M0 355L21.5 343.8C43 332.7 86 310.3 128.8 327C171.7 343.7 214.3 399.3 257.2 431C300 462.7 343 470.3 385.8 468C428.7 465.7 471.3 453.3 514.2 426C557 398.7 600 356.3 642.8 345C685.7 333.7 728.3 353.3 771.2 346C814 338.7 857 304.3 878.5 287.2L900 270L900 601L878.5 601C857 601 814 601 771.2 601C728.3 601 685.7 601 642.8 601C600 601 557 601 514.2 601C471.3 601 428.7 601 385.8 601C343 601 300 601 257.2 601C214.3 601 171.7 601 128.8 601C86 601 43 601 21.5 601L0 601Z" fill="#52bd98" stroke-linecap="round" stroke-linejoin="miter"></path></svg>